<?xml version="1.0" standalone="no"?><!DOCTYPE svg PUBLIC "-//W3C//DTD SVG 1.1//EN" "http://www.w3.org/Graphics/SVG/1.1/DTD/svg11.dtd"><svg t="1769149837083" class="icon" viewBox="0 0 1024 1024" version="1.1" xmlns="http://www.w3.org/2000/svg" p-id="7812" data-spm-anchor-id="a313x.search_index.0.i11.2cd03a81Wk2OKG" xmlns:xlink="http://www.w3.org/1999/xlink" width="200" height="200"><path d="M85.333333 826.965333V158.762667a42.666667 42.666667 0 0 1 29.184-40.490667L378.837333 30.165333A230.314667 230.314667 0 0 1 554.666667 42.666667L199.978667 160.896a12.8 12.8 0 0 0-1.706667 23.594667L309.76 240.213333a85.333333 85.333333 0 0 0 65.152 4.608l213.333333-71.125333C781.653333 109.269333 981.333333 255.189333 981.333333 459.008c0 183.68-117.504 348.16-291.754666 406.229333l-314.709334 104.917334a85.333333 85.333333 0 0 1-65.152-4.608l-200.789333-100.437334A42.666667 42.666667 0 0 1 85.333333 826.965333zM346.88 205.44l-51.114667-25.6a8.533333 8.533333 0 0 1 1.109334-15.701333l209.92-69.973334A230.314667 230.314667 0 0 1 682.666667 106.666667L379.434667 207.744a42.666667 42.666667 0 0 1-32.554667-2.304z" fill="#135df9" p-id="7813" data-spm-anchor-id="a313x.search_index.0.i9.2cd03a81Wk2OKG" class=""></path><path d="M630.741333 285.226667C761.173333 241.706667 896 338.858667 896 476.416a269.653333 269.653333 0 0 1-184.32 255.786667l-228.864 76.288A42.666667 42.666667 0 0 1 426.666667 768V384a42.666667 42.666667 0 0 1 29.184-40.490667l174.890666-58.282666zM810.666667 476.416a116.181333 116.181333 0 0 0-152.96-110.250667L512 414.762667v294.058666l172.672-57.6A184.32 184.32 0 0 0 810.666667 476.458667z" fill="#FFFFFF" p-id="7814" data-spm-anchor-id="a313x.search_index.0.i10.2cd03a81Wk2OKG" class=""></path></svg>